<svg xmlns="http://www.w3.org/2000/svg" width="1290" height="2796" viewBox="0 0 1290 2796"><defs><linearGradient id="bg" x1="0" y1="0" x2="1" y2="1"><stop stop-color="#F7F8FC"/><stop offset="1" stop-color="#EEF1FF"/></linearGradient><linearGradient id="a" x1="0" y1="0" x2="1" y2="1"><stop stop-color="#3F5EFB"/><stop offset="1" stop-color="#7C5CFC"/></linearGradient></defs><rect width="1290" height="2796" fill="url(#bg)"/><circle cx="1080" cy="300" r="420" fill="#EAE4FF" opacity=".7"/><circle cx="180" cy="2520" r="480" fill="#DDE3FF" opacity=".75"/><g transform="translate(485 1120)"><rect width="320" height="320" rx="90" fill="url(#a)"/><path d="M85 203V126c0-28 34-42 54-23l21 20 21-20c20-19 54-5 54 23v77" fill="none" stroke="white" stroke-width="30" stroke-linecap="round" stroke-linejoin="round"/><path d="M85 197c28 27 56 27 75 0 19 27 47 27 75 0" fill="none" stroke="white" stroke-opacity=".72" stroke-width="15" stroke-linecap="round"/></g><text x="645" y="1525" text-anchor="middle" fill="#111827" font-family="Inter,Arial,sans-serif" font-size="64" font-weight="700">GM Daily Planner</text><text x="645" y="1595" text-anchor="middle" fill="#667085" font-family="Inter,Arial,sans-serif" font-size="30">Tu día, diseñado con intención.</text></svg>
